#!OML:ASF H:\Dans Jumps\Project 1\Capture day 1\Session 1\subject.ASF
:FULLY-SPECIFIED
:DEGREES
65
root 0.440216 14.5836 4.45884 1.43791 -3.61446 -2.25197
lowerback 14.2433 0.203289 0.966367
upperback 9.44317 0.348852 1.91244
thorax 1.97523 0.151227 1.41092
lowerneck -11.8425 -0.128269 -2.28937
upperneck -7.84048 0.15048 2.18715
head -0.490278 0.138275 1.06193
rclavicle -6.16232e-015 3.97569e-015
rhumerus 41.3356 7.20653 -31.9458
rradius 67.9913
rwrist 21.8431
rhand -24.0413 -38.0036
rfingers 7.12502
rthumb 2.43748 -67.9695
lclavicle -6.16232e-015 3.97569e-015
lhumerus 44.5249 -6.75774 36.2093
lradius 66.0126
lwrist 5.90293
lhand -32.0145 -3.30419
lfingers 7.12502
lthumb -5.26272 26.6105
rfemur -43.2124 -11.2409 14.9366
rtibia 77.5474
rfoot -31.5651 -5.73937
rtoes -12.8259
lfemur -40.3744 16.8415 -11.8564
ltibia 77.6778
lfoot -30.4238 14.3444
ltoes -13.3023
66
root 0.440084 14.5842 4.46031 1.43891 -3.61117 -2.2457
lowerback 14.2361 0.200133 0.958725
upperback 9.43911 0.343835 1.91822
thorax 1.97473 0.14822 1.42187
lowerneck -11.8416 -0.13236 -2.30798
upperneck -7.8395 0.147138 2.18917
head -0.490022 0.137064 1.06565
rclavicle 7.95139e-016 2.38542e-014
rhumerus 41.3304 7.21895 -31.9475
rradius 67.9921
rwrist 21.8279
rhand -24.1813 -37.9986
rfingers 7.12502
rthumb 2.3023 -67.966
lclavicle 7.95139e-016 2.38542e-014
lhumerus 44.5121 -6.7582 36.2215
lradius 66.01
lwrist 5.87715
lhand -32.0283 -3.26181
lfingers 7.12502
lthumb -5.27609 26.6525
rfemur -43.2009 -11.2415 14.9261
rtibia 77.5497
rfoot -31.5769 -5.74672
rtoes -12.9072
lfemur -40.3624 16.8412 -11.8625
ltibia 77.6773
lfoot -30.4527 14.3283
ltoes -13.2563
67
root 0.438644 14.5831 4.46076 1.43755 -3.61453 -2.27002
lowerback 14.2619 0.206039 0.986395
upperback 9.41474 0.35575 1.92389
thorax 1.935 0.155303 1.41054
lowerneck -11.7912 -0.134672 -2.32585
upperneck -7.8363 0.146077 2.21801
head -0.496917 0.136889 1.0777
rclavicle 2.78299e-015 1.31198e-014
rhumerus 41.2938 7.23882 -31.9599
rradius 67.9888
rwrist 21.8186
rhand -24.1188 -37.9729
rfingers 7.12502
rthumb 2.36266 -67.9395
lclavicle 2.78299e-015 1.31198e-014
lhumerus 44.5052 -6.79479 36.242
lradius 66.005
lwrist 5.86279
lhand -31.8583 -3.20834
lfingers 7.12502
lthumb -5.11187 26.71
rfemur -43.2046 -11.2194 14.961
rtibia 77.5573
rfoot -31.5627 -5.74299
rtoes -12.7115
lfemur -40.3662 16.858 -11.824
ltibia 77.6803
lfoot -30.448 14.3005
ltoes -13.2542
68
root 0.438855 14.5848 4.46136 1.4479 -3.59742 -2.22133
lowerback 14.2738 0.204026 0.959619
upperback 9.39784 0.350967 1.90476
thorax 1.91055 0.152392 1.40603
lowerneck -11.8138 -0.139429 -2.31097
upperneck -7.81044 0.138356 2.22327
head -0.484993 0.132773 1.07666
rclavicle 7.95139e-016 -3.57812e-015
rhumerus 41.2611 7.24591 -31.9636
rradius 67.9989
rwrist 21.8199
rhand -24.0734 -37.8588
rfingers 7.12502
rthumb 2.40651 -67.8249
lclavicle 7.95139e-016 -3.57812e-015
lhumerus 44.5135 -6.81466 36.2231
lradius 66.016
lwrist 5.889
lhand -31.8755 -3.11733
lfingers 7.12502
lthumb -5.12853 26.8006
rfemur -43.2073 -11.2398 14.9047
rtibia 77.5545
rfoot -31.5541 -5.7649
rtoes -12.7047
lfemur -40.395 16.8269 -11.8864
ltibia 77.6853
lfoot -30.4726 14.2378
ltoes -12.7969
69
root 0.437358 14.5858 4.4647 1.4085 -3.57916 -2.2187
lowerback 14.2967 0.193358 0.938409
upperback 9.40975 0.334856 1.91974
thorax 1.91131 0.142903 1.43565
lowerneck -11.7118 -0.0470743 -1.98996
upperneck -7.86994 0.214864 1.93742
head -0.522286 0.161221 0.933507
rclavicle -2.48481e-014 -1.66979e-014
rhumerus 41.2602 7.24542 -31.9702
rradius 68.0265
rwrist 21.8539
rhand -23.7887 -37.7932
rfingers 7.12502
rthumb 2.68142 -67.7561
lclavicle -2.48481e-014 -1.66979e-014
lhumerus 44.5262 -6.78299 36.2719
lradius 65.9988
lwrist 5.92972
lhand -31.7218 -3.12037
lfingers 7.12502
lthumb -4.98011 26.8011
rfemur -43.1342 -11.2448 14.8956
rtibia 77.5504
rfoot -31.6187 -5.77304
rtoes -12.7821
lfemur -40.3036 16.8182 -11.8681
ltibia 77.666
lfoot -30.4877 14.2955
ltoes -13.1581
70
root 0.436665 14.5841 4.46386 1.45188 -3.58368 -2.24159
lowerback 14.2715 0.199004 0.962512
upperback 9.39384 0.344785 1.9276
thorax 1.90755 0.148767 1.42903
lowerneck -11.8863 -0.138305 -2.31342
upperneck -7.73809 0.140261 2.20914
head -0.45075 0.134098 1.07292
rclavicle 6.55989e-015 -8.34896e-015
rhumerus 41.3133 7.26477 -31.9325
rradius 67.9589
rwrist 21.7794
rhand -23.9368 -37.8315
rfingers 7.12502
rthumb 2.53835 -67.7962
lclavicle 6.55989e-015 -8.34896e-015
lhumerus 44.4759 -6.81988 36.2414
lradius 66.0384
lwrist 5.96109
lhand -31.8695 -3.06058
lfingers 7.12502
lthumb -5.12269 26.8575
rfemur -43.1969 -11.2297 14.931
rtibia 77.561
rfoot -31.5805 -5.74708
rtoes -12.6591
lfemur -40.396 16.8377 -11.8586
ltibia 77.6887
lfoot -30.4512 14.3096
ltoes -12.9721
